<svg xmlns="http://www.w3.org/2000/svg" viewBox="0 0 800 400" width="800" height="400">
  <defs>
    <linearGradient id="bg" x1="0%" y1="0%" x2="100%" y2="100%">
      <stop offset="0%" style="stop-color:#C2622E;stop-opacity:1"/>
      <stop offset="60%" style="stop-color:#E8A84A;stop-opacity:1"/>
      <stop offset="100%" style="stop-color:#F6EEDF;stop-opacity:1"/>
    </linearGradient>
    <linearGradient id="overlay" x1="0%" y1="0%" x2="0%" y2="100%">
      <stop offset="0%" style="stop-color:rgba(0,0,0,0);stop-opacity:0"/>
      <stop offset="100%" style="stop-color:rgba(0,0,0,0.5);stop-opacity:1"/>
    </linearGradient>
  </defs>

  <!-- Background -->
  <rect width="800" height="400" fill="url(#bg)"/>

  <!-- Texture dots -->
  <g opacity="0.06">
    <circle cx="0" cy="0" r="1.5" fill="white"/><circle cx="0" cy="40" r="1.5" fill="white"/><circle cx="0" cy="80" r="1.5" fill="white"/><circle cx="0" cy="120" r="1.5" fill="white"/><circle cx="0" cy="160" r="1.5" fill="white"/><circle cx="0" cy="200" r="1.5" fill="white"/><circle cx="0" cy="240" r="1.5" fill="white"/><circle cx="0" cy="280" r="1.5" fill="white"/><circle cx="0" cy="320" r="1.5" fill="white"/><circle cx="0" cy="360" r="1.5" fill="white"/><circle cx="0" cy="400" r="1.5" fill="white"/><circle cx="40" cy="0" r="1.5" fill="white"/><circle cx="40" cy="40" r="1.5" fill="white"/><circle cx="40" cy="80" r="1.5" fill="white"/><circle cx="40" cy="120" r="1.5" fill="white"/><circle cx="40" cy="160" r="1.5" fill="white"/><circle cx="40" cy="200" r="1.5" fill="white"/><circle cx="40" cy="240" r="1.5" fill="white"/><circle cx="40" cy="280" r="1.5" fill="white"/><circle cx="40" cy="320" r="1.5" fill="white"/><circle cx="40" cy="360" r="1.5" fill="white"/><circle cx="40" cy="400" r="1.5" fill="white"/><circle cx="80" cy="0" r="1.5" fill="white"/><circle cx="80" cy="40" r="1.5" fill="white"/><circle cx="80" cy="80" r="1.5" fill="white"/><circle cx="80" cy="120" r="1.5" fill="white"/><circle cx="80" cy="160" r="1.5" fill="white"/><circle cx="80" cy="200" r="1.5" fill="white"/><circle cx="80" cy="240" r="1.5" fill="white"/><circle cx="80" cy="280" r="1.5" fill="white"/><circle cx="80" cy="320" r="1.5" fill="white"/><circle cx="80" cy="360" r="1.5" fill="white"/><circle cx="80" cy="400" r="1.5" fill="white"/><circle cx="120" cy="0" r="1.5" fill="white"/><circle cx="120" cy="40" r="1.5" fill="white"/><circle cx="120" cy="80" r="1.5" fill="white"/><circle cx="120" cy="120" r="1.5" fill="white"/><circle cx="120" cy="160" r="1.5" fill="white"/><circle cx="120" cy="200" r="1.5" fill="white"/><circle cx="120" cy="240" r="1.5" fill="white"/><circle cx="120" cy="280" r="1.5" fill="white"/><circle cx="120" cy="320" r="1.5" fill="white"/><circle cx="120" cy="360" r="1.5" fill="white"/><circle cx="120" cy="400" r="1.5" fill="white"/><circle cx="160" cy="0" r="1.5" fill="white"/><circle cx="160" cy="40" r="1.5" fill="white"/><circle cx="160" cy="80" r="1.5" fill="white"/><circle cx="160" cy="120" r="1.5" fill="white"/><circle cx="160" cy="160" r="1.5" fill="white"/><circle cx="160" cy="200" r="1.5" fill="white"/><circle cx="160" cy="240" r="1.5" fill="white"/><circle cx="160" cy="280" r="1.5" fill="white"/><circle cx="160" cy="320" r="1.5" fill="white"/><circle cx="160" cy="360" r="1.5" fill="white"/><circle cx="160" cy="400" r="1.5" fill="white"/><circle cx="200" cy="0" r="1.5" fill="white"/><circle cx="200" cy="40" r="1.5" fill="white"/><circle cx="200" cy="80" r="1.5" fill="white"/><circle cx="200" cy="120" r="1.5" fill="white"/><circle cx="200" cy="160" r="1.5" fill="white"/><circle cx="200" cy="200" r="1.5" fill="white"/><circle cx="200" cy="240" r="1.5" fill="white"/><circle cx="200" cy="280" r="1.5" fill="white"/><circle cx="200" cy="320" r="1.5" fill="white"/><circle cx="200" cy="360" r="1.5" fill="white"/><circle cx="200" cy="400" r="1.5" fill="white"/><circle cx="240" cy="0" r="1.5" fill="white"/><circle cx="240" cy="40" r="1.5" fill="white"/><circle cx="240" cy="80" r="1.5" fill="white"/><circle cx="240" cy="120" r="1.5" fill="white"/><circle cx="240" cy="160" r="1.5" fill="white"/><circle cx="240" cy="200" r="1.5" fill="white"/><circle cx="240" cy="240" r="1.5" fill="white"/><circle cx="240" cy="280" r="1.5" fill="white"/><circle cx="240" cy="320" r="1.5" fill="white"/><circle cx="240" cy="360" r="1.5" fill="white"/><circle cx="240" cy="400" r="1.5" fill="white"/><circle cx="280" cy="0" r="1.5" fill="white"/><circle cx="280" cy="40" r="1.5" fill="white"/><circle cx="280" cy="80" r="1.5" fill="white"/><circle cx="280" cy="120" r="1.5" fill="white"/><circle cx="280" cy="160" r="1.5" fill="white"/><circle cx="280" cy="200" r="1.5" fill="white"/><circle cx="280" cy="240" r="1.5" fill="white"/><circle cx="280" cy="280" r="1.5" fill="white"/><circle cx="280" cy="320" r="1.5" fill="white"/><circle cx="280" cy="360" r="1.5" fill="white"/><circle cx="280" cy="400" r="1.5" fill="white"/><circle cx="320" cy="0" r="1.5" fill="white"/><circle cx="320" cy="40" r="1.5" fill="white"/><circle cx="320" cy="80" r="1.5" fill="white"/><circle cx="320" cy="120" r="1.5" fill="white"/><circle cx="320" cy="160" r="1.5" fill="white"/><circle cx="320" cy="200" r="1.5" fill="white"/><circle cx="320" cy="240" r="1.5" fill="white"/><circle cx="320" cy="280" r="1.5" fill="white"/><circle cx="320" cy="320" r="1.5" fill="white"/><circle cx="320" cy="360" r="1.5" fill="white"/><circle cx="320" cy="400" r="1.5" fill="white"/><circle cx="360" cy="0" r="1.5" fill="white"/><circle cx="360" cy="40" r="1.5" fill="white"/><circle cx="360" cy="80" r="1.5" fill="white"/><circle cx="360" cy="120" r="1.5" fill="white"/><circle cx="360" cy="160" r="1.5" fill="white"/><circle cx="360" cy="200" r="1.5" fill="white"/><circle cx="360" cy="240" r="1.5" fill="white"/><circle cx="360" cy="280" r="1.5" fill="white"/><circle cx="360" cy="320" r="1.5" fill="white"/><circle cx="360" cy="360" r="1.5" fill="white"/><circle cx="360" cy="400" r="1.5" fill="white"/><circle cx="400" cy="0" r="1.5" fill="white"/><circle cx="400" cy="40" r="1.5" fill="white"/><circle cx="400" cy="80" r="1.5" fill="white"/><circle cx="400" cy="120" r="1.5" fill="white"/><circle cx="400" cy="160" r="1.5" fill="white"/><circle cx="400" cy="200" r="1.5" fill="white"/><circle cx="400" cy="240" r="1.5" fill="white"/><circle cx="400" cy="280" r="1.5" fill="white"/><circle cx="400" cy="320" r="1.5" fill="white"/><circle cx="400" cy="360" r="1.5" fill="white"/><circle cx="400" cy="400" r="1.5" fill="white"/><circle cx="440" cy="0" r="1.5" fill="white"/><circle cx="440" cy="40" r="1.5" fill="white"/><circle cx="440" cy="80" r="1.5" fill="white"/><circle cx="440" cy="120" r="1.5" fill="white"/><circle cx="440" cy="160" r="1.5" fill="white"/><circle cx="440" cy="200" r="1.5" fill="white"/><circle cx="440" cy="240" r="1.5" fill="white"/><circle cx="440" cy="280" r="1.5" fill="white"/><circle cx="440" cy="320" r="1.5" fill="white"/><circle cx="440" cy="360" r="1.5" fill="white"/><circle cx="440" cy="400" r="1.5" fill="white"/><circle cx="480" cy="0" r="1.5" fill="white"/><circle cx="480" cy="40" r="1.5" fill="white"/><circle cx="480" cy="80" r="1.5" fill="white"/><circle cx="480" cy="120" r="1.5" fill="white"/><circle cx="480" cy="160" r="1.5" fill="white"/><circle cx="480" cy="200" r="1.5" fill="white"/><circle cx="480" cy="240" r="1.5" fill="white"/><circle cx="480" cy="280" r="1.5" fill="white"/><circle cx="480" cy="320" r="1.5" fill="white"/><circle cx="480" cy="360" r="1.5" fill="white"/><circle cx="480" cy="400" r="1.5" fill="white"/><circle cx="520" cy="0" r="1.5" fill="white"/><circle cx="520" cy="40" r="1.5" fill="white"/><circle cx="520" cy="80" r="1.5" fill="white"/><circle cx="520" cy="120" r="1.5" fill="white"/><circle cx="520" cy="160" r="1.5" fill="white"/><circle cx="520" cy="200" r="1.5" fill="white"/><circle cx="520" cy="240" r="1.5" fill="white"/><circle cx="520" cy="280" r="1.5" fill="white"/><circle cx="520" cy="320" r="1.5" fill="white"/><circle cx="520" cy="360" r="1.5" fill="white"/><circle cx="520" cy="400" r="1.5" fill="white"/><circle cx="560" cy="0" r="1.5" fill="white"/><circle cx="560" cy="40" r="1.5" fill="white"/><circle cx="560" cy="80" r="1.5" fill="white"/><circle cx="560" cy="120" r="1.5" fill="white"/><circle cx="560" cy="160" r="1.5" fill="white"/><circle cx="560" cy="200" r="1.5" fill="white"/><circle cx="560" cy="240" r="1.5" fill="white"/><circle cx="560" cy="280" r="1.5" fill="white"/><circle cx="560" cy="320" r="1.5" fill="white"/><circle cx="560" cy="360" r="1.5" fill="white"/><circle cx="560" cy="400" r="1.5" fill="white"/><circle cx="600" cy="0" r="1.5" fill="white"/><circle cx="600" cy="40" r="1.5" fill="white"/><circle cx="600" cy="80" r="1.5" fill="white"/><circle cx="600" cy="120" r="1.5" fill="white"/><circle cx="600" cy="160" r="1.5" fill="white"/><circle cx="600" cy="200" r="1.5" fill="white"/><circle cx="600" cy="240" r="1.5" fill="white"/><circle cx="600" cy="280" r="1.5" fill="white"/><circle cx="600" cy="320" r="1.5" fill="white"/><circle cx="600" cy="360" r="1.5" fill="white"/><circle cx="600" cy="400" r="1.5" fill="white"/><circle cx="640" cy="0" r="1.5" fill="white"/><circle cx="640" cy="40" r="1.5" fill="white"/><circle cx="640" cy="80" r="1.5" fill="white"/><circle cx="640" cy="120" r="1.5" fill="white"/><circle cx="640" cy="160" r="1.5" fill="white"/><circle cx="640" cy="200" r="1.5" fill="white"/><circle cx="640" cy="240" r="1.5" fill="white"/><circle cx="640" cy="280" r="1.5" fill="white"/><circle cx="640" cy="320" r="1.5" fill="white"/><circle cx="640" cy="360" r="1.5" fill="white"/><circle cx="640" cy="400" r="1.5" fill="white"/><circle cx="680" cy="0" r="1.5" fill="white"/><circle cx="680" cy="40" r="1.5" fill="white"/><circle cx="680" cy="80" r="1.5" fill="white"/><circle cx="680" cy="120" r="1.5" fill="white"/><circle cx="680" cy="160" r="1.5" fill="white"/><circle cx="680" cy="200" r="1.5" fill="white"/><circle cx="680" cy="240" r="1.5" fill="white"/><circle cx="680" cy="280" r="1.5" fill="white"/><circle cx="680" cy="320" r="1.5" fill="white"/><circle cx="680" cy="360" r="1.5" fill="white"/><circle cx="680" cy="400" r="1.5" fill="white"/><circle cx="720" cy="0" r="1.5" fill="white"/><circle cx="720" cy="40" r="1.5" fill="white"/><circle cx="720" cy="80" r="1.5" fill="white"/><circle cx="720" cy="120" r="1.5" fill="white"/><circle cx="720" cy="160" r="1.5" fill="white"/><circle cx="720" cy="200" r="1.5" fill="white"/><circle cx="720" cy="240" r="1.5" fill="white"/><circle cx="720" cy="280" r="1.5" fill="white"/><circle cx="720" cy="320" r="1.5" fill="white"/><circle cx="720" cy="360" r="1.5" fill="white"/><circle cx="720" cy="400" r="1.5" fill="white"/><circle cx="760" cy="0" r="1.5" fill="white"/><circle cx="760" cy="40" r="1.5" fill="white"/><circle cx="760" cy="80" r="1.5" fill="white"/><circle cx="760" cy="120" r="1.5" fill="white"/><circle cx="760" cy="160" r="1.5" fill="white"/><circle cx="760" cy="200" r="1.5" fill="white"/><circle cx="760" cy="240" r="1.5" fill="white"/><circle cx="760" cy="280" r="1.5" fill="white"/><circle cx="760" cy="320" r="1.5" fill="white"/><circle cx="760" cy="360" r="1.5" fill="white"/><circle cx="760" cy="400" r="1.5" fill="white"/><circle cx="800" cy="0" r="1.5" fill="white"/><circle cx="800" cy="40" r="1.5" fill="white"/><circle cx="800" cy="80" r="1.5" fill="white"/><circle cx="800" cy="120" r="1.5" fill="white"/><circle cx="800" cy="160" r="1.5" fill="white"/><circle cx="800" cy="200" r="1.5" fill="white"/><circle cx="800" cy="240" r="1.5" fill="white"/><circle cx="800" cy="280" r="1.5" fill="white"/><circle cx="800" cy="320" r="1.5" fill="white"/><circle cx="800" cy="360" r="1.5" fill="white"/><circle cx="800" cy="400" r="1.5" fill="white"/>
  </g>

  <!-- Wave pattern bottom -->
  <g opacity="0.12">
    <path d="M0 300 Q100 270 200 300 Q300 330 400 300 Q500 270 600 300 Q700 330 800 300 L800 400 L0 400 Z" fill="white"/>
    <path d="M0 330 Q100 300 200 330 Q300 360 400 330 Q500 300 600 330 Q700 360 800 330 L800 400 L0 400 Z" fill="white"/>
  </g>

  <!-- Gradient overlay -->
  <rect width="800" height="400" fill="url(#overlay)"/>

  <!-- Icon circle -->
  <circle cx="400" cy="145" r="52" fill="rgba(255,255,255,0.15)"/>
  <circle cx="400" cy="145" r="44" fill="rgba(255,255,255,0.10)" stroke="rgba(255,255,255,0.3)" stroke-width="1.5"/>
  <svg x="376" y="121" width="48" height="48" viewBox="0 0 24 24" fill="none" stroke="white" stroke-width="1.5" stroke-linecap="round" stroke-linejoin="round">
    <path d="M19 12H5 M12 19l-7-7 7-7"/>
  </svg>

  <!-- Destination name -->
  <text x="400" y="235" font-family="Georgia, serif" font-size="28" font-weight="bold"
    fill="white" text-anchor="middle" dominant-baseline="middle"
    style="text-shadow: 0 2px 8px rgba(0,0,0,0.4);">Regreso a Bari</text>

  <!-- Country -->
  <text x="400" y="272" font-family="Arial, sans-serif" font-size="16" font-weight="400"
    fill="rgba(255,255,255,0.80)" text-anchor="middle" letter-spacing="3"
    style="text-transform: uppercase;">ITALIA</text>

  <!-- Decorative line -->
  <line x1="340" y1="255" x2="460" y2="255" stroke="rgba(255,255,255,0.4)" stroke-width="1"/>
</svg>